<svg xmlns="http://www.w3.org/2000/svg" width="100" height="100" viewBox="0 0 32 32">
  <path d="M6.584 9.01c-1.36 0-2.74.53-2.97.82-.06.12-.2 1.09.13 1.09.11 0 .16.02.48-.13 1.2-.47 1.96-.46 2.07-.46 1.35-.13 2.13.79 2.01 1.98v.7c-1.14-.27-1.79-.28-2.11-.28-1.66-.1-3.194.776-3.194 2.7 0 2.11 1.883 2.56 2.613 2.53 1.09.01 2.13-.48 2.82-1.33.55 1.23.9 1.15.91 1.15.1 0 .18-.04.26-.09l.57-.4c.1-.06.18-.16.19-.28-.01-.29-.53-.74-.49-1.75v-3.12a3.179 3.179 0 0 0-.799-2.35 3.42 3.42 0 0 0-2.49-.78zm19.373 0c-2 0-3.15 1.25-3.12 2.52 0 1.74 1.76 2.29 1.96 2.35 1.69.53 1.92.55 2.39.95.4.41.35 1.21-.24 1.56-.17.1-.9.54-2.55.2-.55-.11-.84-.24-1.29-.43-.12-.04-.4-.11-.4.26v.49c0 .23.14.44.35.54 1.05.53 2.31.55 2.58.55.04 0 2.34.001 3.11-1.55.158-.32.57-1.49-.2-2.49-.64-.75-1.19-.83-2.83-1.33-.14-.04-1.35-.35-1.34-1.2-.06-1.09 1.42-1.15 1.73-1.13 1.25-.02 1.87.45 2.21.48.15 0 .22-.09.22-.29v-.46a.487.487 0 0 0-.09-.31c-.4-.52-1.93-.71-2.49-.71zm-15.18.25c-.11.02-.19.13-.17.24.02.13.04.26.09.39l2.24 7.39c.05.24.21.5.56.46h.82c.5.05.57-.43.58-.48l1.47-6.16 1.49 6.17c.01.05.08.53.57.48h.83c.36.04.53-.22.58-.46 2.52-8.11 2.35-7.56 2.37-7.64.04-.42-.2-.39-.24-.38h-.89c-.45-.05-.54.36-.56.46l-1.66 6.41-1.5-6.41c-.07-.49-.47-.47-.57-.46h-.77c-.44-.04-.55.31-.58.46l-1.49 6.32-1.6-6.32c-.04-.2-.17-.51-.56-.47h-1.01zm-4.254 4.63c.72.01 1.342.12 1.772.22 0 .5.018.78-.092 1.23-.14.48-.759 1.35-2.219 1.37-.84.04-1.39-.62-1.34-1.37-.05-1.2 1.19-1.5 1.88-1.45zm22.518 6.112c-.933.013-2.035.222-2.871.809-.258.179-.213.427.074.394.94-.113 3.032-.367 3.406.111.375.478-.414 2.45-.763 3.332-.108.263.12.372.361.172 1.564-1.31 1.97-4.056 1.65-4.45-.16-.198-.924-.381-1.857-.368zm-27.824 1c-.218.03-.312.306-.084.525C5.05 25.201 10.226 27 15.973 27c4.099 0 8.857-1.337 12.142-3.857.543-.42.08-1.047-.476-.8-3.683 1.626-7.684 2.409-11.325 2.409-5.396 0-10.62-1.127-14.845-3.686a.39.39 0 0 0-.252-.064z"/>
</svg>
