<svg xmlns="http://www.w3.org/2000/svg" width="100" height="100" viewBox="0 0 50 50">
  <path d="M25 2C12.31 2 2 12.31 2 25a1 1 0 0 0 1 1h8a1 1 0 0 0 1-1c0-7.192 5.808-13 13-13s13 5.808 13 13c0 6.854-5.279 12.439-12 12.95V31a1 1 0 0 0-1-1h-8a1 1 0 0 0-1 1v7h-4v-4a1 1 0 0 0-1-1H6a1 1 0 0 0-1 1v5a1 1 0 0 0 1 1h4v5a1 1 0 0 0 1 1h6a1 1 0 0 0 1-1v-5h6v7a1 1 0 0 0 1 1c12.69 0 23-10.31 23-23S37.69 2 25 2zm0 2c11.61 0 21 9.39 21 21 0 11.267-8.866 20.369-20 20.9v-6.002C33.799 39.373 40 32.93 40 25c0-8.272-6.728-15-15-15-7.93 0-14.373 6.201-14.898 14H4.1C4.63 12.866 13.733 4 25 4zm-7 28h6v6h-6v-6zM7 35h3v3H7v-3zm5 5h4v4h-4v-4z"/>
</svg>
