<svg xmlns="http://www.w3.org/2000/svg" width="100" height="100" viewBox="0 0 50 50">
  <path d="M41.625 10.77c-3.98-3.204-10.277-3.747-10.547-3.766a.992.992 0 0 0-.988.586 6.63 6.63 0 0 0-.305.832c2.633.445 5.867 1.34 8.793 3.156a1 1 0 1 1-1.055 1.7C32.493 10.155 26.211 10 25 10c-1.21 0-7.496.156-12.523 3.277a1 1 0 0 1-1.055-1.7c2.926-1.811 6.16-2.71 8.793-3.151-.152-.496-.29-.809-.3-.836a.987.987 0 0 0-.993-.586c-.27.02-6.567.562-10.602 3.809C6.215 12.761 2 24.152 2 34c0 .176.047.344.133.496 2.906 5.11 10.84 6.445 12.648 6.504h.031a1 1 0 0 0 .81-.41l1.827-2.516c-4.933-1.273-7.453-3.437-7.597-3.566a1 1 0 0 1 1.324-1.5C11.234 33.063 15.875 37 25 37c9.14 0 13.781-3.953 13.828-3.992a1 1 0 0 1 1.41.094.996.996 0 0 1-.09 1.406c-.144.129-2.664 2.293-7.597 3.566l1.828 2.516a1 1 0 0 0 .809.41h.03c1.81-.059 9.743-1.395 12.65-6.504A1.01 1.01 0 0 0 48 34c0-9.848-4.215-21.238-6.375-23.23ZM18.5 30c-1.934 0-3.5-1.79-3.5-4s1.566-4 3.5-4 3.5 1.79 3.5 4-1.566 4-3.5 4Zm13 0c-1.934 0-3.5-1.79-3.5-4s1.566-4 3.5-4 3.5 1.79 3.5 4-1.566 4-3.5 4Z"/>
</svg>
