<svg xmlns="http://www.w3.org/2000/svg" width="100" height="100" viewBox="0 0 50 50">
  <path d="M15.688 4a4.393 4.393 0 0 0-3.813 2.25L2.594 22.781a4.513 4.513 0 0 0 0 4.438l9.281 16.531A4.393 4.393 0 0 0 15.688 46h18.624a4.393 4.393 0 0 0 3.813-2.25l9.281-16.531a4.513 4.513 0 0 0 0-4.438L38.125 6.25A4.393 4.393 0 0 0 34.312 4Zm0 2h18.624c.844 0 1.63.45 2.063 1.219L39.063 12H17.5l-.281.5L11.156 23l-3.25-5.625 5.719-10.156A2.36 2.36 0 0 1 15.688 6Zm2.968 8h12.688l6.375 11-3.594 6.219L31.344 36H18.656L17.5 34.031l-2.594-4.5L12.281 25Zm15 0h6.532l5.5 9.75c.433.77.433 1.73 0 2.5l-9.313 16.531A2.36 2.36 0 0 1 34.312 44h-5.25l3.438-6 .281-.5 6.938-12L40 25l-.281-.5ZM25 19c-3.3 0-6 2.7-6 6s2.7 6 6 6 6-2.7 6-6-2.7-6-6-6Zm-18.25.406L10 25l.281.5 5.5 9.531L17.22 37.5l.281.5h12.688l-3.47 6h-11.03a2.36 2.36 0 0 1-2.063-1.219L4.312 26.25a2.565 2.565 0 0 1 0-2.5ZM25 21c2.223 0 4 1.777 4 4s-1.777 4-4 4-4-1.777-4-4 1.777-4 4-4Z"/>
</svg>
