<svg xmlns="http://www.w3.org/2000/svg" width="100" height="100" viewBox="0 0 50 50">
  <path d="M16.594 0a1.006 1.006 0 0 0-.157.031L4.688 3.687a1.056 1.056 0 0 0-.406.25A.466.466 0 0 0 4.25 4a.466.466 0 0 0-.063.031v.032l-.03.03a.466.466 0 0 0-.032.063l-.031.032v.062l-.032.031v.063l-.03.031v.063A1.14 1.14 0 0 0 4 4.563v.062a.971.971 0 0 0 .094.469L6.656 17.5c.04.23.164.441.344.594l2.656 2.062-1.312.625-.094.032a1.211 1.211 0 0 0-.125.062 1.273 1.273 0 0 0-.156.094.466.466 0 0 0-.063.031l-.031.031a1.074 1.074 0 0 0-.188.25l-.03.032a.918.918 0 0 0-.095.28v.063a.753.753 0 0 0 0 .188.668.668 0 0 0 0 .125.88.88 0 0 0 .032.093L9.53 31.5c.047.207.156.39.313.531l1.781 1.688-.719.437-.125.063c-.031.02-.062.039-.094.062l-.03.032a.532.532 0 0 0-.095.093.466.466 0 0 0-.03.063l-.032.031a.466.466 0 0 0-.031.063l-.031.03-.032.032v.031a.466.466 0 0 0-.031.063v.031a.88.88 0 0 0-.031.094v.094l-.031.03v.188a.45.45 0 0 0 .03.063v.062c.009.02.02.043.032.063l1.5 7.312a.98.98 0 0 0 .25.469l6.156 6.563a.913.913 0 0 0 .219.187h.031c.02.012.043.023.063.031h.031c.02.024.04.043.063.063.07.02.144.027.218.031a.99.99 0 0 0 .875-.344l7.813-6.187c.254-.203.394-.52.375-.844l-.125-2.719 1.312 1.063c.02.031.04.062.063.093l.062.032c.352.285.852.297 1.219.031h.031l6.375-5.094a1 1 0 0 0 .375-.718l.125-1.907.719.469c.047.047.102.09.156.125l.032.031a.405.405 0 0 0 .062.032l.031.03h.032a.405.405 0 0 0 .062.032h.031c.02.012.043.023.063.031h.031c.02.012.043.024.063.032h.249a.999.999 0 0 0 .47-.157h.03a.472.472 0 0 0 .063-.062l.094-.063a.472.472 0 0 0 .062-.062l5.032-4a1 1 0 0 0 .374-.657l.907-6.687a.466.466 0 0 0 .031-.063v-.156a1.024 1.024 0 0 0 0-.218.466.466 0 0 0-.031-.063v-.031a.466.466 0 0 0-.032-.063v-.031a.466.466 0 0 0-.03-.063v-.03a.472.472 0 0 0-.063-.063.913.913 0 0 0-.188-.219.966.966 0 0 0-.437-.25l-6.375-3.563a1.037 1.037 0 0 0-.469-.125h-.094a.985.985 0 0 0-.437.157l-5.532 3.375c-.09.039-.175.093-.25.156v.031a.945.945 0 0 0-.124.125v.032a.472.472 0 0 0-.063.062v.031a.967.967 0 0 0-.094.25v.032a.466.466 0 0 0-.031.062v.094a.668.668 0 0 0 0 .125l-.031 1.593-1.219-.812a1 1 0 0 0-.563-.188 1.044 1.044 0 0 0-.187.032c-.11.023-.215.066-.313.125l-2.25 1.375-.093-1.938a.753.753 0 0 0 0-.187 1.169 1.169 0 0 0-.032-.125v-.094a.466.466 0 0 0-.03-.063v-.03a.466.466 0 0 0-.032-.063v-.032a.466.466 0 0 0-.031-.062l-.032-.031a.466.466 0 0 0-.03-.063h-.032a.466.466 0 0 0-.031-.062l-.032-.032a.466.466 0 0 0-.03-.062h-.032a.472.472 0 0 0-.063-.063h-.03l-.063-.03-.032-.032-.03-.031a.88.88 0 0 0-.095-.032l-2.25-1.5 2.157-1.125a.994.994 0 0 0 .562-.906l-.531-12.5V5l-.031-.031v-.063l-.032-.031v-.063l-.03-.03v-.063a1.016 1.016 0 0 0-.376-.407l-.031-.03a.999.999 0 0 0-.25-.126L17.187.094A1.005 1.005 0 0 0 16.595 0Zm.093 2.094 6.125 2.969-6.593 2.5-2.844 1.093L7.406 4.97Zm7.75 4.5.438 10.5-2.906 1.531-.094.031a.842.842 0 0 0-.188.094l-5.656 2.969-1.656-11.282Zm-18 .125 5.907 3.656 1.531 10.531-1.719-1.343a1.272 1.272 0 0 0-.156-.094l-3.5-2.75Zm31.97 13 4.718 2.625-2.5 1.781-1.188.875-4.78-3ZM22.218 20.75l1.968 1.313-8.156 4.625L10.406 22l1-.469 3.031 2.313.063.062c.02.024.04.043.063.063l.062.031.031.031c.02.012.043.024.063.032l.031.03.031.032h.031c.02.012.043.023.063.031l.031.032h.063l.031.03h.312a.869.869 0 0 0 .282-.062.466.466 0 0 0 .062-.031h.031Zm11.5 3.031 4.718 2.938-.28 3.125-.126 1.562-.5-.343.188-2.782v-.062a.668.668 0 0 0 0-.125v-.063a1.169 1.169 0 0 0-.032-.125c-.007-.031-.019-.062-.03-.093a.842.842 0 0 0-.094-.188.466.466 0 0 0-.032-.063l-.031-.03a.466.466 0 0 0-.031-.063 1.204 1.204 0 0 0-.188-.125l-.062-.063c-.051-.023-.102-.047-.157-.062l-3.374-2.25Zm-8.563.032.094 2.062v.281l.219 4.907-1.813 1.25a1.273 1.273 0 0 0-.156.093c-.031.02-.063.04-.094.063L18.5 35.78l-.375.25L17 28.47l4.656-2.657Zm-15.031.562L15 28.438v.03l.969 6.563-2-1.875a.472.472 0 0 0-.063-.062l-2.469-2.344Zm33.563.063-.532 4.093-3.093 2.438.374-4.219Zm-13.75.437 2.093 1.375a.94.94 0 0 0 .344.219l2.563 1.718-5.063 3.625L27.469 30l-.188-3.5Zm5.656 5.313-.063.968c-.09.219-.101.461-.031.688l-.188 2.906-4.437 3.531-.031-4.687Zm-8.407 2.125 1.657 1.25.031 4.593-1.125-.968-.094-1.688a.753.753 0 0 0 0-.188.668.668 0 0 0 0-.124.466.466 0 0 0-.031-.063v-.031a.466.466 0 0 0-.031-.063V35a.466.466 0 0 0-.032-.063v-.03a.466.466 0 0 0-.03-.063l-.032-.032a.466.466 0 0 0-.031-.062h-.032a.466.466 0 0 0-.03-.063l-.032-.03a.466.466 0 0 0-.031-.063h-.032l-.03-.032-.032-.03a1.272 1.272 0 0 0-.156-.094l-1.375-1.126 1.343-.906a.949.949 0 0 0 .125-.093ZM24 34.468l1 .812-6.969 5-5.093-5 .218-.125 3.406 3.188c.02.023.04.043.063.062l.063.063a.454.454 0 0 0 .062.062h.031c.02.024.04.043.063.063.058.039.12.07.187.093.063.016.125.028.188.032a.879.879 0 0 0 .093.031h.032c.062-.004.125-.016.187-.031h.094a.842.842 0 0 0 .188-.094c.03-.02.062-.04.093-.063h.032Zm1.75 2.781.031.469v.093l.157 4.407-6.188 4.937-.75-5.093Zm-12.813.844 4.063 4 .344 2.406.218 1.5-3.812-4.063Z"/>
</svg>
