<svg xmlns="http://www.w3.org/2000/svg" width="100" height="100" viewBox="0 0 50 50">
  <path d="M27.96 3.016a4.506 4.506 0 0 0-1.796.226c-2.492.805-3.707 3.508-2.922 5.887l1.117 3.398-5.285 1.93-1.07-3.25c-.59-1.887-2.25-3.059-4.043-3.191a4.61 4.61 0 0 0-1.79.226c-2.5.805-3.714 3.508-2.929 5.895l1.149 3.492-3.336 1.219c-2.356.832-3.598 3.496-2.836 5.91C4.848 26.75 6.629 28 8.489 28c.577 0 1.07-.14 1.433-.27h.008l3.383-1.238 1.624 4.934-3.863 1.414c-2.449.816-3.594 3.531-2.844 5.914C8.848 40.71 10.566 42 12.492 42c.535 0 .957-.14 1.36-.246l.043-.008 3.968-1.434 1.153 3.485v.012C19.684 45.69 21.453 47 23.39 47c.582 0 1.086-.137 1.46-.262 2.403-.808 3.715-3.472 2.919-5.89l-1.211-3.676 5.289-1.91 1.168 3.535v.008c.668 1.883 2.437 3.191 4.375 3.191.582 0 1.086-.137 1.46-.262 2.403-.812 3.715-3.476 2.919-5.89l-1.227-3.723 2.488-.898.016-.008c2.3-.945 3.547-3.602 2.672-6.024-.582-1.796-2.164-3.02-3.91-3.175a4.24 4.24 0 0 0-1.778.226l-.004.004-2.445.895-1.617-4.922 2.957-1.078c2.45-.817 3.598-3.524 2.848-5.907a4.473 4.473 0 0 0-3.938-3.21 4.297 4.297 0 0 0-1.766.226l-.004.004-3.019 1.101-1.04-3.152c-.589-1.887-2.25-3.058-4.042-3.187Zm-.132 1.976c1.012.059 1.922.696 2.266 1.805l.004.008 1.066 3.238-4.922 1.797-1.101-3.336c-.461-1.402.195-2.902 1.64-3.363h.012l.004-.004a2.8 2.8 0 0 1 1.031-.145Zm9.875 5.004c.953.05 1.817.684 2.156 1.816v.016c.453 1.43-.203 2.957-1.57 3.414l-.012.004-2.941 1.074-1.668-5.062 3.062-1.117a2.49 2.49 0 0 1 .973-.145ZM13.828 10c1.012.055 1.922.695 2.266 1.805l.004.008 1.097 3.332-4.922 1.796-1.132-3.433c-.461-1.403.195-2.899 1.64-3.363h.012l.004-.004A2.7 2.7 0 0 1 13.828 10Zm17.961 1.941 1.668 5.063-4.922 1.8-1.668-5.066Zm-6.8 2.485 1.667 5.062-5.285 1.934-1.668-5.063Zm-7.165 2.62 1.664 5.063-4.922 1.797-1.664-5.062Zm16.258 1.86 1.621 4.922-4.922 1.797-1.62-4.922Zm-23.062.625 1.668 5.063-3.43 1.25a2.5 2.5 0 0 1-.77.156c-.953 0-1.984-.656-2.36-1.844-.44-1.402.329-2.976 1.59-3.422Zm16.261 1.86 1.621 4.922-5.285 1.937-1.62-4.926Zm-7.168 2.617 1.625 4.93-4.922 1.8-1.625-4.93Zm21.543 0c.95.086 1.836.758 2.168 1.808l.004.028.008.02c.512 1.394-.242 2.96-1.543 3.5h-.004l-2.371.855-1.711-5.18 2.492-.91c.313-.11.637-.149.957-.121Zm-5.328 1.719 1.707 5.175-4.93 1.782-1.699-5.157Zm-6.797 2.488 1.692 5.144-5.29 1.91-1.687-5.117Zm-7.168 2.625 1.684 5.113-4.926 1.777-1.68-5.09ZM38.66 32.8l1.211 3.669c.45 1.37-.32 2.918-1.656 3.37-.25.083-.578.157-.824.157-.973 0-2.11-.793-2.485-1.855l-1.176-3.563Zm-23.097.528 1.675 5.082-3.918 1.414c-.39.102-.761.176-.828.176-1.082 0-1.969-.617-2.355-1.844h.004c-.454-1.433.203-2.965 1.566-3.418l.012-.004Zm9.113 4.524 1.195 3.625c.45 1.367-.32 2.914-1.656 3.367-.25.082-.578.156-.824.156-.973 0-2.11-.797-2.485-1.855l-.004-.004-1.156-3.512Z"/>
</svg>
